%TF.GenerationSoftware,Altium Limited,Altium Designer,23.10.1 (27)*%
G04 Layer_Color=32768*
%FSLAX45Y45*%
%MOMM*%
%TF.SameCoordinates,B354EDB2-5D87-4BC4-9A89-E940D1E3C1FA*%
%TF.FilePolarity,Positive*%
%TF.FileFunction,Other,Top_Component_Outline*%
%TF.Part,Single*%
G01*
G75*
%TA.AperFunction,NonConductor*%
%ADD47C,0.10000*%
D47*
X2247331Y3593999D02*
X3447334D01*
Y2394002D02*
Y3593999D01*
X2247331Y2394002D02*
X3447334D01*
X2247331D02*
Y3593999D01*
X4160566D02*
X5360568D01*
Y2394002D02*
Y3593999D01*
X4160566Y2394002D02*
X5360568D01*
X4160566D02*
Y3593999D01*
X6073800D02*
X7273798D01*
Y2394002D02*
Y3593999D01*
X6073800Y2394002D02*
X7273798D01*
X6073800D02*
Y3593999D01*
X334101D02*
X1534099D01*
Y2394002D02*
Y3593999D01*
X334101Y2394002D02*
X1534099D01*
X334101D02*
Y3593999D01*
X4160566Y1794003D02*
X5360568D01*
Y594000D02*
Y1794003D01*
X4160566Y594000D02*
X5360568D01*
X4160566D02*
Y1794003D01*
X6073800D02*
X7273798D01*
Y594000D02*
Y1794003D01*
X6073800Y594000D02*
X7273798D01*
X6073800D02*
Y1794003D01*
X334101D02*
X1534099D01*
Y594000D02*
Y1794003D01*
X334101Y594000D02*
X1534099D01*
X334101D02*
Y1794003D01*
X2247331D02*
X3447334D01*
Y594000D02*
Y1794003D01*
X2247331Y594000D02*
X3447334D01*
X2247331D02*
Y1794003D01*
%TF.MD5,48e2f055802904b1362559284cb82ca7*%
M02*
