%TF.GenerationSoftware,Altium Limited,Altium Designer,23.10.1 (27)*%
G04 Layer_Color=32896*
%FSLAX45Y45*%
%MOMM*%
%TF.SameCoordinates,B354EDB2-5D87-4BC4-9A89-E940D1E3C1FA*%
%TF.FilePolarity,Positive*%
%TF.FileFunction,Legend,Bot*%
%TF.Part,Single*%
G01*
G75*
%TA.AperFunction,NonConductor*%
%ADD30C,0.20000*%
%ADD33C,0.25400*%
%ADD34C,0.15000*%
D30*
X428701Y6159998D02*
Y7180001D01*
X29703Y9978598D02*
X7759700D01*
Y12068602D01*
X29703D02*
X7759700D01*
X29703Y9978598D02*
Y12068602D01*
X-100300Y11023600D02*
X-300D01*
X7839700Y10973603D02*
Y11073602D01*
X7789702Y11023600D02*
X7889702D01*
D33*
X5479100Y9811350D02*
X7538550D01*
X5479100Y5473000D02*
X7538550D01*
X5479100D02*
Y9811350D01*
X7538550Y5473000D02*
Y9811350D01*
X38100Y7899400D02*
Y9677400D01*
X2578100D01*
Y7899400D02*
Y9677400D01*
X38100Y7899400D02*
X2578100D01*
X5492530Y5230859D02*
Y5383210D01*
X5594097D01*
X5644881D02*
Y5230859D01*
X5695664Y5281643D01*
X5746448Y5230859D01*
Y5383210D01*
X5797231D02*
X5848015D01*
X5822623D01*
Y5230859D01*
X5797231Y5256251D01*
X2566621Y7811737D02*
Y7760953D01*
Y7786345D01*
X2439662D01*
X2414270Y7760953D01*
Y7735562D01*
X2439662Y7710170D01*
X1797058Y7715201D02*
Y7562850D01*
X1695491D01*
X1543140Y7689809D02*
X1568532Y7715201D01*
X1619316D01*
X1644707Y7689809D01*
Y7664417D01*
X1619316Y7639025D01*
X1568532D01*
X1543140Y7613633D01*
Y7588242D01*
X1568532Y7562850D01*
X1619316D01*
X1644707Y7588242D01*
X1492357Y7562850D02*
X1441573D01*
X1466965D01*
Y7715201D01*
X1492357Y7689809D01*
X8127561Y10085037D02*
Y10034253D01*
Y10059645D01*
X8000602D01*
X7975210Y10034253D01*
Y10008862D01*
X8000602Y9983470D01*
X8102169Y10135821D02*
X8127561Y10161213D01*
Y10211996D01*
X8102169Y10237388D01*
X8000602D01*
X7975210Y10211996D01*
Y10161213D01*
X8000602Y10135821D01*
X8102169D01*
D34*
X1828700Y6667500D02*
G03*
X1828700Y6667500I-800000J0D01*
G01*
%TF.MD5,ec4e1563ea943ecd3950ad107a4c445d*%
M02*
