%TF.GenerationSoftware,Altium Limited,Altium Designer,23.10.1 (27)*%
G04 Layer_Color=0*
%FSLAX45Y45*%
%MOMM*%
%TF.SameCoordinates,B354EDB2-5D87-4BC4-9A89-E940D1E3C1FA*%
%TF.FilePolarity,Positive*%
%TF.FileFunction,Plated,1,2,PTH,Drill*%
%TF.Part,Single*%
G01*
G75*
%TA.AperFunction,OtherDrill,Pad Free-4 (2.412mm,123.825mm)*%
%ADD51C,3.20000*%
%TA.AperFunction,OtherDrill,Pad Free-4 (74.412mm,123.825mm)*%
%ADD52C,3.20000*%
%TA.AperFunction,OtherDrill,Pad Free-4 (2.412mm,58.825mm)*%
%ADD53C,3.20000*%
%TA.AperFunction,OtherDrill,Pad Free-4 (74.412mm,46.825mm)*%
%ADD54C,3.20000*%
%TA.AperFunction,OtherDrill,Pad Free-4 (74.412mm,2.825mm)*%
%ADD55C,3.20000*%
%TA.AperFunction,OtherDrill,Pad Free-4 (3.412mm,2.825mm)*%
%ADD56C,3.20000*%
%TA.AperFunction,ComponentDrill*%
%ADD57C,1.20000*%
%ADD58C,2.00000*%
%ADD59C,1.00000*%
%ADD60C,0.95000*%
%ADD61C,1.32000*%
%ADD62C,1.50000*%
%ADD63C,0.76200*%
%ADD64C,0.63500*%
%ADD65C,0.80000*%
%TA.AperFunction,ViaDrill,NotFilled*%
%ADD66C,0.71120*%
%ADD67C,2.54000*%
D51*
X241200Y12382500D02*
D03*
D52*
X7441200D02*
D03*
D53*
X241200Y5882500D02*
D03*
D54*
X7441200Y4682500D02*
D03*
D55*
Y282500D02*
D03*
D56*
X341200D02*
D03*
D57*
X3472332Y2744003D02*
D03*
X2222332D02*
D03*
X3472332Y3244002D02*
D03*
X2222332D02*
D03*
X5385567Y2744003D02*
D03*
X4135567D02*
D03*
X5385567Y3244002D02*
D03*
X4135567D02*
D03*
X7298802Y2744003D02*
D03*
X6048802D02*
D03*
X7298802Y3244002D02*
D03*
X6048802D02*
D03*
X1559098Y2744003D02*
D03*
X309098D02*
D03*
X1559098Y3244002D02*
D03*
X309098D02*
D03*
X5385567Y944002D02*
D03*
X4135567D02*
D03*
X5385567Y1444001D02*
D03*
X4135567D02*
D03*
X7298802Y944002D02*
D03*
X6048802D02*
D03*
X7298802Y1444001D02*
D03*
X6048802D02*
D03*
X1559098Y944002D02*
D03*
X309098D02*
D03*
X1559098Y1444001D02*
D03*
X309098D02*
D03*
X3472332Y944002D02*
D03*
X2222332D02*
D03*
X3472332Y1444001D02*
D03*
X2222332D02*
D03*
D58*
X2925902Y6888302D02*
D03*
X5125898D02*
D03*
Y9088298D02*
D03*
X2925902D02*
D03*
D59*
X4406900Y9138300D02*
D03*
X4152900D02*
D03*
X3898900D02*
D03*
X3644900D02*
D03*
D60*
X778698Y6667500D02*
D03*
X1278702D02*
D03*
D61*
X283703Y11023600D02*
D03*
X7505700D02*
D03*
D62*
X5647900Y5665450D02*
D03*
X7366000Y5664200D02*
D03*
X5647000Y9615100D02*
D03*
X7365100Y9613850D02*
D03*
D63*
X1930400Y9423400D02*
D03*
X1676400D02*
D03*
X1422400D02*
D03*
X1168400D02*
D03*
X914400D02*
D03*
X673100D02*
D03*
X685800Y8153400D02*
D03*
X927100D02*
D03*
X1181100D02*
D03*
X1435100D02*
D03*
X1689100D02*
D03*
X1943100D02*
D03*
D64*
X325100Y3866098D02*
D03*
X579100D02*
D03*
X833100D02*
D03*
X1087100D02*
D03*
X1341100D02*
D03*
X1595100D02*
D03*
X1849100D02*
D03*
X2103100D02*
D03*
X2357100D02*
D03*
X2611100D02*
D03*
X2865100D02*
D03*
X3119100D02*
D03*
X3373100D02*
D03*
X3627100D02*
D03*
X3881100D02*
D03*
X4135100D02*
D03*
X4389100D02*
D03*
X4643100D02*
D03*
X4897100D02*
D03*
X5151100D02*
D03*
X325100Y5388102D02*
D03*
X579100D02*
D03*
X833100D02*
D03*
X1087100D02*
D03*
X1341100D02*
D03*
X1595100D02*
D03*
X1849100D02*
D03*
X2103100D02*
D03*
X2357100D02*
D03*
X2611100D02*
D03*
X2865100D02*
D03*
X3119100D02*
D03*
X3373100D02*
D03*
X3627100D02*
D03*
X3881100D02*
D03*
X4135100D02*
D03*
X4389100D02*
D03*
X4643100D02*
D03*
X4897100D02*
D03*
X5151100D02*
D03*
D65*
X7685400Y9268501D02*
D03*
Y8638499D02*
D03*
D66*
X5194300Y9550400D02*
D03*
X1993900Y7112000D02*
D03*
X6400800Y9055100D02*
D03*
D67*
X2324100Y9423400D02*
D03*
X292100D02*
D03*
Y8153400D02*
D03*
X2324100D02*
D03*
%TF.MD5,7a51ba465af5edbde250ed2fd5fe26b7*%
M02*
