%TF.GenerationSoftware,Altium Limited,Altium Designer,23.10.1 (27)*%
G04 Layer_Color=65535*
%FSLAX45Y45*%
%MOMM*%
%TF.SameCoordinates,B354EDB2-5D87-4BC4-9A89-E940D1E3C1FA*%
%TF.FilePolarity,Positive*%
%TF.FileFunction,Legend,Top*%
%TF.Part,Single*%
G01*
G75*
%TA.AperFunction,NonConductor*%
%ADD30C,0.20000*%
%ADD31C,0.25000*%
%ADD32C,0.12700*%
%ADD33C,0.25400*%
D30*
X3635900Y9338300D02*
G03*
X3635900Y9338300I-10000J0D01*
G01*
X5353100Y3866100D02*
G03*
X5353100Y3866100I-10000J0D01*
G01*
Y5388100D02*
G03*
X5353100Y5388100I-10000J0D01*
G01*
X3447334Y2858999D02*
Y3129001D01*
X2247331Y2858999D02*
Y3129001D01*
X3447334Y2394002D02*
Y2629002D01*
X2247331Y2394002D02*
Y2629002D01*
X3447334Y3359003D02*
Y3593999D01*
X2247331Y3359003D02*
Y3593999D01*
Y2394002D02*
X3447334D01*
X2247331Y3593999D02*
X3447334D01*
X5360568Y2858999D02*
Y3129001D01*
X4160566Y2858999D02*
Y3129001D01*
X5360568Y2394002D02*
Y2629002D01*
X4160566Y2394002D02*
Y2629002D01*
X5360568Y3359003D02*
Y3593999D01*
X4160566Y3359003D02*
Y3593999D01*
Y2394002D02*
X5360568D01*
X4160566Y3593999D02*
X5360568D01*
X198100Y3993098D02*
X5278100D01*
X198100Y3739098D02*
X5278100D01*
X198100D02*
Y3993098D01*
X5278100Y3739098D02*
Y3993098D01*
X198100Y5515102D02*
X5278100D01*
X198100Y5261102D02*
X5278100D01*
X198100D02*
Y5515102D01*
X5278100Y5261102D02*
Y5515102D01*
X7273798Y2858999D02*
Y3129001D01*
X6073800Y2858999D02*
Y3129001D01*
X7273798Y2394002D02*
Y2629002D01*
X6073800Y2394002D02*
Y2629002D01*
X7273798Y3359003D02*
Y3593999D01*
X6073800Y3359003D02*
Y3593999D01*
Y2394002D02*
X7273798D01*
X6073800Y3593999D02*
X7273798D01*
X1534099Y2858999D02*
Y3129001D01*
X334101Y2858999D02*
Y3129001D01*
X1534099Y2394002D02*
Y2629002D01*
X334101Y2394002D02*
Y2629002D01*
X1534099Y3359003D02*
Y3593999D01*
X334101Y3359003D02*
Y3593999D01*
Y2394002D02*
X1534099D01*
X334101Y3593999D02*
X1534099D01*
X5360568Y1059003D02*
Y1329000D01*
X4160566Y1059003D02*
Y1329000D01*
X5360568Y594000D02*
Y829001D01*
X4160566Y594000D02*
Y829001D01*
X5360568Y1559002D02*
Y1794003D01*
X4160566Y1559002D02*
Y1794003D01*
Y594000D02*
X5360568D01*
X4160566Y1794003D02*
X5360568D01*
X7273798Y1059003D02*
Y1329000D01*
X6073800Y1059003D02*
Y1329000D01*
X7273798Y594000D02*
Y829001D01*
X6073800Y594000D02*
Y829001D01*
X7273798Y1559002D02*
Y1794003D01*
X6073800Y1559002D02*
Y1794003D01*
Y594000D02*
X7273798D01*
X6073800Y1794003D02*
X7273798D01*
X1534099Y1059003D02*
Y1329000D01*
X334101Y1059003D02*
Y1329000D01*
X1534099Y594000D02*
Y829001D01*
X334101Y594000D02*
Y829001D01*
X1534099Y1559002D02*
Y1794003D01*
X334101Y1559002D02*
Y1794003D01*
Y594000D02*
X1534099D01*
X334101Y1794003D02*
X1534099D01*
X3447334Y1059003D02*
Y1329000D01*
X2247331Y1059003D02*
Y1329000D01*
X3447334Y594000D02*
Y829001D01*
X2247331Y594000D02*
Y829001D01*
X3447334Y1559002D02*
Y1794003D01*
X2247331Y1559002D02*
Y1794003D01*
Y594000D02*
X3447334D01*
X2247331Y1794003D02*
X3447334D01*
X7380402Y8500999D02*
X7695402D01*
Y9371000D02*
Y9406001D01*
Y8740999D02*
Y9166001D01*
Y8500999D02*
Y8536000D01*
X7380402Y9406001D02*
X7695402D01*
X7380402Y9140998D02*
Y9406001D01*
Y8500999D02*
Y8565998D01*
D31*
X7142900Y8653500D02*
G03*
X7142900Y8653500I-12500J0D01*
G01*
D32*
X2725903Y6688303D02*
Y9288302D01*
Y6688303D02*
X3325901D01*
Y6888302D01*
X4725899D01*
Y6688303D02*
Y6888302D01*
Y6688303D02*
X5325902D01*
Y9288302D01*
X2725903D02*
X5325902D01*
D33*
X2261822Y3820730D02*
X2236430Y3846122D01*
X2185647D01*
X2160255Y3820730D01*
Y3795338D01*
X2185647Y3769946D01*
X2236430D01*
X2261822Y3744554D01*
Y3719163D01*
X2236430Y3693771D01*
X2185647D01*
X2160255Y3719163D01*
X2312606Y3846122D02*
Y3693771D01*
X2363389Y3744554D01*
X2414173Y3693771D01*
Y3846122D01*
X2464956Y3693771D02*
X2515740D01*
X2490348D01*
Y3846122D01*
X2464956Y3820730D01*
X4149664D02*
X4124272Y3846122D01*
X4073488D01*
X4048096Y3820730D01*
Y3795338D01*
X4073488Y3769946D01*
X4124272D01*
X4149664Y3744554D01*
Y3719163D01*
X4124272Y3693771D01*
X4073488D01*
X4048096Y3719163D01*
X4200447Y3846122D02*
Y3693771D01*
X4251231Y3744554D01*
X4302014Y3693771D01*
Y3846122D01*
X4454365Y3693771D02*
X4352798D01*
X4454365Y3795338D01*
Y3820730D01*
X4428973Y3846122D01*
X4378190D01*
X4352798Y3820730D01*
X2749542Y9587181D02*
Y9460222D01*
X2774934Y9434830D01*
X2825717D01*
X2851109Y9460222D01*
Y9587181D01*
X2901893Y9434830D02*
X2952676D01*
X2927284D01*
Y9587181D01*
X2901893Y9561789D01*
X2236430Y2020730D02*
X2211039Y2046122D01*
X2160255D01*
X2134863Y2020730D01*
Y1995338D01*
X2160255Y1969946D01*
X2211039D01*
X2236430Y1944554D01*
Y1919163D01*
X2211039Y1893771D01*
X2160255D01*
X2134863Y1919163D01*
X2287214Y2046122D02*
Y1893771D01*
X2337997Y1944554D01*
X2388781Y1893771D01*
Y2046122D01*
X2541132D02*
X2439565D01*
Y1969946D01*
X2490348Y1995338D01*
X2515740D01*
X2541132Y1969946D01*
Y1919163D01*
X2515740Y1893771D01*
X2464956D01*
X2439565Y1919163D01*
X323197Y2020730D02*
X297805Y2046122D01*
X247022D01*
X221630Y2020730D01*
Y1995338D01*
X247022Y1969946D01*
X297805D01*
X323197Y1944554D01*
Y1919163D01*
X297805Y1893771D01*
X247022D01*
X221630Y1919163D01*
X373981Y2046122D02*
Y1893771D01*
X424764Y1944554D01*
X475548Y1893771D01*
Y2046122D01*
X602507Y1893771D02*
Y2046122D01*
X526331Y1969946D01*
X627899D01*
X6902491Y8606757D02*
X6877099Y8581365D01*
Y8530582D01*
X6902491Y8505190D01*
X6927883D01*
X6953274Y8530582D01*
Y8581365D01*
X6978666Y8606757D01*
X7004058D01*
X7029450Y8581365D01*
Y8530582D01*
X7004058Y8505190D01*
X6877099Y8657540D02*
X7029450D01*
X6978666Y8708324D01*
X7029450Y8759108D01*
X6877099D01*
X6902491Y8809891D02*
X6877099Y8835283D01*
Y8886067D01*
X6902491Y8911458D01*
X6927883D01*
X6953274Y8886067D01*
X6978666Y8911458D01*
X7004058D01*
X7029450Y8886067D01*
Y8835283D01*
X7004058Y8809891D01*
X6978666D01*
X6953274Y8835283D01*
X6927883Y8809891D01*
X6902491D01*
X6953274Y8835283D02*
Y8886067D01*
X4149664Y2020730D02*
X4124272Y2046122D01*
X4073488D01*
X4048096Y2020730D01*
Y1995338D01*
X4073488Y1969946D01*
X4124272D01*
X4149664Y1944554D01*
Y1919163D01*
X4124272Y1893771D01*
X4073488D01*
X4048096Y1919163D01*
X4200447Y2046122D02*
Y1893771D01*
X4251231Y1944554D01*
X4302014Y1893771D01*
Y2046122D01*
X4454365D02*
X4403581Y2020730D01*
X4352798Y1969946D01*
Y1919163D01*
X4378190Y1893771D01*
X4428973D01*
X4454365Y1919163D01*
Y1944554D01*
X4428973Y1969946D01*
X4352798D01*
X6062897Y2020730D02*
X6037505Y2046122D01*
X5986721D01*
X5961329Y2020730D01*
Y1995338D01*
X5986721Y1969946D01*
X6037505D01*
X6062897Y1944554D01*
Y1919163D01*
X6037505Y1893771D01*
X5986721D01*
X5961329Y1919163D01*
X6113680Y2046122D02*
Y1893771D01*
X6164464Y1944554D01*
X6215247Y1893771D01*
Y2046122D01*
X6266031D02*
X6367598D01*
Y2020730D01*
X6266031Y1919163D01*
Y1893771D01*
X323197Y3820730D02*
X297805Y3846122D01*
X247022D01*
X221630Y3820730D01*
Y3795338D01*
X247022Y3769946D01*
X297805D01*
X323197Y3744554D01*
Y3719163D01*
X297805Y3693771D01*
X247022D01*
X221630Y3719163D01*
X373981Y3846122D02*
Y3693771D01*
X424764Y3744554D01*
X475548Y3693771D01*
Y3846122D01*
X526331Y3820730D02*
X551723Y3846122D01*
X602507D01*
X627899Y3820730D01*
Y3719163D01*
X602507Y3693771D01*
X551723D01*
X526331Y3719163D01*
Y3820730D01*
X6062897D02*
X6037505Y3846122D01*
X5986721D01*
X5961329Y3820730D01*
Y3795338D01*
X5986721Y3769946D01*
X6037505D01*
X6062897Y3744554D01*
Y3719163D01*
X6037505Y3693771D01*
X5986721D01*
X5961329Y3719163D01*
X6113680Y3846122D02*
Y3693771D01*
X6164464Y3744554D01*
X6215247Y3693771D01*
Y3846122D01*
X6266031Y3820730D02*
X6291423Y3846122D01*
X6342206D01*
X6367598Y3820730D01*
Y3795338D01*
X6342206Y3769946D01*
X6316814D01*
X6342206D01*
X6367598Y3744554D01*
Y3719163D01*
X6342206Y3693771D01*
X6291423D01*
X6266031Y3719163D01*
X304825Y5029208D02*
Y4978425D01*
Y5003817D01*
X431783D01*
X457175Y4978425D01*
Y4953033D01*
X431783Y4927641D01*
X457175Y5181559D02*
Y5079992D01*
X355608Y5181559D01*
X330217D01*
X304825Y5156167D01*
Y5105384D01*
X330217Y5079992D01*
X279425Y4216400D02*
Y4165617D01*
Y4191008D01*
X406383D01*
X431775Y4165617D01*
Y4140225D01*
X406383Y4114833D01*
X431775Y4267184D02*
Y4317967D01*
Y4292576D01*
X279425D01*
X304817Y4267184D01*
%TF.MD5,bf4629fa49cc3ef47a524cc41762a01f*%
M02*
