%TF.GenerationSoftware,Altium Limited,Altium Designer,23.10.1 (27)*%
G04 Layer_Color=2752767*
%FSLAX45Y45*%
%MOMM*%
%TF.SameCoordinates,B354EDB2-5D87-4BC4-9A89-E940D1E3C1FA*%
%TF.FilePolarity,Positive*%
%TF.FileFunction,Drawing*%
%TF.Part,Single*%
G01*
G75*
%TA.AperFunction,NonConductor*%
%ADD32C,0.12700*%
%ADD69C,0.16933*%
%ADD70C,0.10160*%
D32*
X215800Y12357100D02*
Y12331700D01*
X266600D01*
Y12357100D01*
X292000D01*
Y12407900D01*
X266600D01*
Y12433300D01*
X215800D01*
Y12407900D01*
X190400D01*
Y12357100D01*
X215800D01*
X225960Y12367260D02*
Y12352020D01*
X256440D01*
Y12367260D01*
X271680D01*
Y12397740D01*
X256440D01*
Y12412980D01*
X225960D01*
Y12397740D01*
X210720D01*
Y12367260D01*
X225960D01*
X7415800Y12357100D02*
Y12331700D01*
X7466600D01*
Y12357100D01*
X7492000D01*
Y12407900D01*
X7466600D01*
Y12433300D01*
X7415800D01*
Y12407900D01*
X7390400D01*
Y12357100D01*
X7415800D01*
X7425960Y12367260D02*
Y12352020D01*
X7456440D01*
Y12367260D01*
X7471680D01*
Y12397740D01*
X7456440D01*
Y12412980D01*
X7425960D01*
Y12397740D01*
X7410720D01*
Y12367260D01*
X7425960D01*
X215800Y5857100D02*
Y5831700D01*
X266600D01*
Y5857100D01*
X292000D01*
Y5907900D01*
X266600D01*
Y5933300D01*
X215800D01*
Y5907900D01*
X190400D01*
Y5857100D01*
X215800D01*
X225960Y5867260D02*
Y5852020D01*
X256440D01*
Y5867260D01*
X271680D01*
Y5897740D01*
X256440D01*
Y5912980D01*
X225960D01*
Y5897740D01*
X210720D01*
Y5867260D01*
X225960D01*
X7415800Y4657100D02*
Y4631700D01*
X7466600D01*
Y4657100D01*
X7492000D01*
Y4707900D01*
X7466600D01*
Y4733300D01*
X7415800D01*
Y4707900D01*
X7390400D01*
Y4657100D01*
X7415800D01*
X7425960Y4667260D02*
Y4652020D01*
X7456440D01*
Y4667260D01*
X7471680D01*
Y4697740D01*
X7456440D01*
Y4712980D01*
X7425960D01*
Y4697740D01*
X7410720D01*
Y4667260D01*
X7425960D01*
X7415800Y257100D02*
Y231700D01*
X7466600D01*
Y257100D01*
X7492000D01*
Y307900D01*
X7466600D01*
Y333300D01*
X7415800D01*
Y307900D01*
X7390400D01*
Y257100D01*
X7415800D01*
X7425960Y267260D02*
Y252020D01*
X7456440D01*
Y267260D01*
X7471680D01*
Y297740D01*
X7456440D01*
Y312980D01*
X7425960D01*
Y297740D01*
X7410720D01*
Y267260D01*
X7425960D01*
X315800Y257100D02*
Y231700D01*
X366600D01*
Y257100D01*
X392000D01*
Y307900D01*
X366600D01*
Y333300D01*
X315800D01*
Y307900D01*
X290400D01*
Y257100D01*
X315800D01*
X325960Y267260D02*
Y252020D01*
X356440D01*
Y267260D01*
X371680D01*
Y297740D01*
X356440D01*
Y312980D01*
X325960D01*
Y297740D01*
X310720D01*
Y267260D01*
X325960D01*
X4356100Y9087500D02*
Y9189100D01*
X4457700D01*
Y9087500D01*
X4356100D01*
X4102100D02*
Y9189100D01*
X4203700D01*
Y9087500D01*
X4102100D01*
X3848100D02*
Y9189100D01*
X3949700D01*
Y9087500D01*
X3848100D01*
X3594100D02*
Y9189100D01*
X3695700D01*
Y9087500D01*
X3594100D01*
X778698Y6616700D02*
X804098Y6642100D01*
X829498D01*
X804098Y6667500D01*
X829498Y6692900D01*
X804098D01*
X778698Y6718300D01*
X753298Y6692900D01*
X727898D01*
X753298Y6667500D01*
X727898Y6642100D01*
X753298D01*
X778698Y6616700D01*
X1278702D02*
X1304102Y6642100D01*
X1329502D01*
X1304102Y6667500D01*
X1329502Y6692900D01*
X1304102D01*
X1278702Y6718300D01*
X1253302Y6692900D01*
X1227902D01*
X1253302Y6667500D01*
X1227902Y6642100D01*
X1253302D01*
X1278702Y6616700D01*
X232903Y10972800D02*
Y11074400D01*
X334503D01*
Y10972800D01*
X232903D01*
X253223Y10993120D02*
Y11054080D01*
X314183D01*
Y10993120D01*
X253223D01*
X7454900Y10972800D02*
Y11074400D01*
X7556500D01*
Y10972800D01*
X7454900D01*
X7475220Y10993120D02*
Y11054080D01*
X7536180D01*
Y10993120D01*
X7475220D01*
X6603898Y10223602D02*
X6654698Y10274402D01*
X6705498Y10223602D01*
X6654698Y10172802D01*
X6603898Y10223602D01*
X1083899Y11823598D02*
X1134699Y11874398D01*
X1185499Y11823598D01*
X1134699Y11772798D01*
X1083899Y11823598D01*
X7423902Y11772798D02*
X7449302D01*
X7474702Y11798198D01*
X7500102Y11772798D01*
X7525502D01*
Y11798198D01*
X7500102Y11823598D01*
X7525502Y11848998D01*
Y11874398D01*
X7500102D01*
X7474702Y11848998D01*
X7449302Y11874398D01*
X7423902D01*
Y11848998D01*
X7449302Y11823598D01*
X7423902Y11798198D01*
Y11772798D01*
X5597100Y5614650D02*
X5622500Y5665450D01*
X5597100Y5716250D01*
X5647900Y5690850D01*
X5698700Y5716250D01*
X5673300Y5665450D01*
X5698700Y5614650D01*
X5647900Y5640050D01*
X5597100Y5614650D01*
X7315200Y5613400D02*
X7340600Y5664200D01*
X7315200Y5715000D01*
X7366000Y5689600D01*
X7416800Y5715000D01*
X7391400Y5664200D01*
X7416800Y5613400D01*
X7366000Y5638800D01*
X7315200Y5613400D01*
X5596200Y9564300D02*
X5621600Y9615100D01*
X5596200Y9665900D01*
X5647000Y9640500D01*
X5697800Y9665900D01*
X5672400Y9615100D01*
X5697800Y9564300D01*
X5647000Y9589700D01*
X5596200Y9564300D01*
X7314300Y9563050D02*
X7339700Y9613850D01*
X7314300Y9664650D01*
X7365100Y9639250D01*
X7415900Y9664650D01*
X7390500Y9613850D01*
X7415900Y9563050D01*
X7365100Y9588450D01*
X7314300Y9563050D01*
X1930400Y9372600D02*
X1879600Y9474200D01*
X1981200D01*
X1930400Y9372600D01*
Y9392920D02*
X1899920Y9453880D01*
X1960880D01*
X1930400Y9392920D01*
X1676400Y9372600D02*
X1625600Y9474200D01*
X1727200D01*
X1676400Y9372600D01*
Y9392920D02*
X1645920Y9453880D01*
X1706880D01*
X1676400Y9392920D01*
X1422400Y9372600D02*
X1371600Y9474200D01*
X1473200D01*
X1422400Y9372600D01*
Y9392920D02*
X1391920Y9453880D01*
X1452880D01*
X1422400Y9392920D01*
X1168400Y9372600D02*
X1117600Y9474200D01*
X1219200D01*
X1168400Y9372600D01*
Y9392920D02*
X1137920Y9453880D01*
X1198880D01*
X1168400Y9392920D01*
X914400Y9372600D02*
X863600Y9474200D01*
X965200D01*
X914400Y9372600D01*
Y9392920D02*
X883920Y9453880D01*
X944880D01*
X914400Y9392920D01*
X673100Y9372600D02*
X622300Y9474200D01*
X723900D01*
X673100Y9372600D01*
Y9392920D02*
X642620Y9453880D01*
X703580D01*
X673100Y9392920D01*
X685800Y8102600D02*
X635000Y8204200D01*
X736600D01*
X685800Y8102600D01*
Y8122920D02*
X655320Y8183880D01*
X716280D01*
X685800Y8122920D01*
X927100Y8102600D02*
X876300Y8204200D01*
X977900D01*
X927100Y8102600D01*
Y8122920D02*
X896620Y8183880D01*
X957580D01*
X927100Y8122920D01*
X1181100Y8102600D02*
X1130300Y8204200D01*
X1231900D01*
X1181100Y8102600D01*
Y8122920D02*
X1150620Y8183880D01*
X1211580D01*
X1181100Y8122920D01*
X1435100Y8102600D02*
X1384300Y8204200D01*
X1485900D01*
X1435100Y8102600D01*
Y8122920D02*
X1404620Y8183880D01*
X1465580D01*
X1435100Y8122920D01*
X1689100Y8102600D02*
X1638300Y8204200D01*
X1739900D01*
X1689100Y8102600D01*
Y8122920D02*
X1658620Y8183880D01*
X1719580D01*
X1689100Y8122920D01*
X1943100Y8102600D02*
X1892300Y8204200D01*
X1993900D01*
X1943100Y8102600D01*
Y8122920D02*
X1912620Y8183880D01*
X1973580D01*
X1943100Y8122920D01*
X325100Y3815298D02*
X274300Y3916898D01*
X375900D01*
X325100Y3815298D01*
X579100D02*
X528300Y3916898D01*
X629900D01*
X579100Y3815298D01*
X833100D02*
X782300Y3916898D01*
X883900D01*
X833100Y3815298D01*
X1087100D02*
X1036300Y3916898D01*
X1137900D01*
X1087100Y3815298D01*
X1341100D02*
X1290300Y3916898D01*
X1391900D01*
X1341100Y3815298D01*
X1595100D02*
X1544300Y3916898D01*
X1645900D01*
X1595100Y3815298D01*
X1849100D02*
X1798300Y3916898D01*
X1899900D01*
X1849100Y3815298D01*
X2103100D02*
X2052300Y3916898D01*
X2153900D01*
X2103100Y3815298D01*
X2357100D02*
X2306300Y3916898D01*
X2407900D01*
X2357100Y3815298D01*
X2611100D02*
X2560300Y3916898D01*
X2661900D01*
X2611100Y3815298D01*
X2865100D02*
X2814300Y3916898D01*
X2915900D01*
X2865100Y3815298D01*
X3119100D02*
X3068300Y3916898D01*
X3169900D01*
X3119100Y3815298D01*
X3373100D02*
X3322300Y3916898D01*
X3423900D01*
X3373100Y3815298D01*
X3627100D02*
X3576300Y3916898D01*
X3677900D01*
X3627100Y3815298D01*
X3881100D02*
X3830300Y3916898D01*
X3931900D01*
X3881100Y3815298D01*
X4135100D02*
X4084300Y3916898D01*
X4185900D01*
X4135100Y3815298D01*
X4389100D02*
X4338300Y3916898D01*
X4439900D01*
X4389100Y3815298D01*
X4643100D02*
X4592300Y3916898D01*
X4693900D01*
X4643100Y3815298D01*
X4897100D02*
X4846300Y3916898D01*
X4947900D01*
X4897100Y3815298D01*
X5151100D02*
X5100300Y3916898D01*
X5201900D01*
X5151100Y3815298D01*
X325100Y5337302D02*
X274300Y5438902D01*
X375900D01*
X325100Y5337302D01*
X579100D02*
X528300Y5438902D01*
X629900D01*
X579100Y5337302D01*
X833100D02*
X782300Y5438902D01*
X883900D01*
X833100Y5337302D01*
X1087100D02*
X1036300Y5438902D01*
X1137900D01*
X1087100Y5337302D01*
X1341100D02*
X1290300Y5438902D01*
X1391900D01*
X1341100Y5337302D01*
X1595100D02*
X1544300Y5438902D01*
X1645900D01*
X1595100Y5337302D01*
X1849100D02*
X1798300Y5438902D01*
X1899900D01*
X1849100Y5337302D01*
X2103100D02*
X2052300Y5438902D01*
X2153900D01*
X2103100Y5337302D01*
X2357100D02*
X2306300Y5438902D01*
X2407900D01*
X2357100Y5337302D01*
X2611100D02*
X2560300Y5438902D01*
X2661900D01*
X2611100Y5337302D01*
X2865100D02*
X2814300Y5438902D01*
X2915900D01*
X2865100Y5337302D01*
X3119100D02*
X3068300Y5438902D01*
X3169900D01*
X3119100Y5337302D01*
X3373100D02*
X3322300Y5438902D01*
X3423900D01*
X3373100Y5337302D01*
X3627100D02*
X3576300Y5438902D01*
X3677900D01*
X3627100Y5337302D01*
X3881100D02*
X3830300Y5438902D01*
X3931900D01*
X3881100Y5337302D01*
X4135100D02*
X4084300Y5438902D01*
X4185900D01*
X4135100Y5337302D01*
X4389100D02*
X4338300Y5438902D01*
X4439900D01*
X4389100Y5337302D01*
X4643100D02*
X4592300Y5438902D01*
X4693900D01*
X4643100Y5337302D01*
X4897100D02*
X4846300Y5438902D01*
X4947900D01*
X4897100Y5337302D01*
X5151100D02*
X5100300Y5438902D01*
X5201900D01*
X5151100Y5337302D01*
X7660000Y9243101D02*
Y9217701D01*
X7710800D01*
Y9243101D01*
X7736200D01*
Y9293901D01*
X7710800D01*
Y9319301D01*
X7660000D01*
Y9293901D01*
X7634600D01*
Y9243101D01*
X7660000D01*
Y8613099D02*
Y8587699D01*
X7710800D01*
Y8613099D01*
X7736200D01*
Y8663899D01*
X7710800D01*
Y8689299D01*
X7660000D01*
Y8663899D01*
X7634600D01*
Y8613099D01*
X7660000D01*
X5143500Y9499600D02*
X5168900Y9550400D01*
X5143500Y9601200D01*
X5194300Y9575800D01*
X5245100Y9601200D01*
X5219700Y9550400D01*
X5245100Y9499600D01*
X5194300Y9525000D01*
X5143500Y9499600D01*
X5163820Y9519920D02*
X5179060Y9550400D01*
X5163820Y9580880D01*
X5194300Y9565640D01*
X5224780Y9580880D01*
X5209540Y9550400D01*
X5224780Y9519920D01*
X5194300Y9535160D01*
X5163820Y9519920D01*
X1943100Y7061200D02*
X1968500Y7112000D01*
X1943100Y7162800D01*
X1993900Y7137400D01*
X2044700Y7162800D01*
X2019300Y7112000D01*
X2044700Y7061200D01*
X1993900Y7086600D01*
X1943100Y7061200D01*
X1963420Y7081520D02*
X1978660Y7112000D01*
X1963420Y7142480D01*
X1993900Y7127240D01*
X2024380Y7142480D01*
X2009140Y7112000D01*
X2024380Y7081520D01*
X1993900Y7096760D01*
X1963420Y7081520D01*
X6350000Y9004300D02*
X6375400Y9055100D01*
X6350000Y9105900D01*
X6400800Y9080500D01*
X6451600Y9105900D01*
X6426200Y9055100D01*
X6451600Y9004300D01*
X6400800Y9029700D01*
X6350000Y9004300D01*
X6370320Y9024620D02*
X6385560Y9055100D01*
X6370320Y9085580D01*
X6400800Y9070340D01*
X6431280Y9085580D01*
X6416040Y9055100D01*
X6431280Y9024620D01*
X6400800Y9039860D01*
X6370320Y9024620D01*
X2324100Y9372600D02*
X2349500Y9398000D01*
X2374900D01*
X2349500Y9423400D01*
X2374900Y9448800D01*
X2349500D01*
X2324100Y9474200D01*
X2298700Y9448800D01*
X2273300D01*
X2298700Y9423400D01*
X2273300Y9398000D01*
X2298700D01*
X2324100Y9372600D01*
Y9392920D02*
X2339340Y9408160D01*
X2354580D01*
X2339340Y9423400D01*
X2354580Y9438640D01*
X2339340D01*
X2324100Y9453880D01*
X2308860Y9438640D01*
X2293620D01*
X2308860Y9423400D01*
X2293620Y9408160D01*
X2308860D01*
X2324100Y9392920D01*
X292100Y9372600D02*
X317500Y9398000D01*
X342900D01*
X317500Y9423400D01*
X342900Y9448800D01*
X317500D01*
X292100Y9474200D01*
X266700Y9448800D01*
X241300D01*
X266700Y9423400D01*
X241300Y9398000D01*
X266700D01*
X292100Y9372600D01*
Y9392920D02*
X307340Y9408160D01*
X322580D01*
X307340Y9423400D01*
X322580Y9438640D01*
X307340D01*
X292100Y9453880D01*
X276860Y9438640D01*
X261620D01*
X276860Y9423400D01*
X261620Y9408160D01*
X276860D01*
X292100Y9392920D01*
Y8102600D02*
X317500Y8128000D01*
X342900D01*
X317500Y8153400D01*
X342900Y8178800D01*
X317500D01*
X292100Y8204200D01*
X266700Y8178800D01*
X241300D01*
X266700Y8153400D01*
X241300Y8128000D01*
X266700D01*
X292100Y8102600D01*
Y8122920D02*
X307340Y8138160D01*
X322580D01*
X307340Y8153400D01*
X322580Y8168640D01*
X307340D01*
X292100Y8183880D01*
X276860Y8168640D01*
X261620D01*
X276860Y8153400D01*
X261620Y8138160D01*
X276860D01*
X292100Y8122920D01*
X2324100Y8102600D02*
X2349500Y8128000D01*
X2374900D01*
X2349500Y8153400D01*
X2374900Y8178800D01*
X2349500D01*
X2324100Y8204200D01*
X2298700Y8178800D01*
X2273300D01*
X2298700Y8153400D01*
X2273300Y8128000D01*
X2298700D01*
X2324100Y8102600D01*
Y8122920D02*
X2339340Y8138160D01*
X2354580D01*
X2339340Y8153400D01*
X2354580Y8168640D01*
X2339340D01*
X2324100Y8183880D01*
X2308860Y8168640D01*
X2293620D01*
X2308860Y8153400D01*
X2293620Y8138160D01*
X2308860D01*
X2324100Y8122920D01*
D69*
X3523132Y2744003D02*
G03*
X3523132Y2744003I-50800J0D01*
G01*
X2273132D02*
G03*
X2273132Y2744003I-50800J0D01*
G01*
X3523132Y3244002D02*
G03*
X3523132Y3244002I-50800J0D01*
G01*
X2273132D02*
G03*
X2273132Y3244002I-50800J0D01*
G01*
X2976702Y6888302D02*
G03*
X2976702Y6888302I-50800J0D01*
G01*
X5176698D02*
G03*
X5176698Y6888302I-50800J0D01*
G01*
Y9088298D02*
G03*
X5176698Y9088298I-50800J0D01*
G01*
X2976702D02*
G03*
X2976702Y9088298I-50800J0D01*
G01*
X5436367Y2744003D02*
G03*
X5436367Y2744003I-50800J0D01*
G01*
X4186367D02*
G03*
X4186367Y2744003I-50800J0D01*
G01*
X5436367Y3244002D02*
G03*
X5436367Y3244002I-50800J0D01*
G01*
X4186367D02*
G03*
X4186367Y3244002I-50800J0D01*
G01*
X7349602Y2744003D02*
G03*
X7349602Y2744003I-50800J0D01*
G01*
X6099602D02*
G03*
X6099602Y2744003I-50800J0D01*
G01*
X7349602Y3244002D02*
G03*
X7349602Y3244002I-50800J0D01*
G01*
X6099602D02*
G03*
X6099602Y3244002I-50800J0D01*
G01*
X1609898Y2744003D02*
G03*
X1609898Y2744003I-50800J0D01*
G01*
X359898D02*
G03*
X359898Y2744003I-50800J0D01*
G01*
X1609898Y3244002D02*
G03*
X1609898Y3244002I-50800J0D01*
G01*
X359898D02*
G03*
X359898Y3244002I-50800J0D01*
G01*
X5436367Y944002D02*
G03*
X5436367Y944002I-50800J0D01*
G01*
X4186367D02*
G03*
X4186367Y944002I-50800J0D01*
G01*
X5436367Y1444001D02*
G03*
X5436367Y1444001I-50800J0D01*
G01*
X4186367D02*
G03*
X4186367Y1444001I-50800J0D01*
G01*
X7349602Y944002D02*
G03*
X7349602Y944002I-50800J0D01*
G01*
X6099602D02*
G03*
X6099602Y944002I-50800J0D01*
G01*
X7349602Y1444001D02*
G03*
X7349602Y1444001I-50800J0D01*
G01*
X6099602D02*
G03*
X6099602Y1444001I-50800J0D01*
G01*
X1609898Y944002D02*
G03*
X1609898Y944002I-50800J0D01*
G01*
X359898D02*
G03*
X359898Y944002I-50800J0D01*
G01*
X1609898Y1444001D02*
G03*
X1609898Y1444001I-50800J0D01*
G01*
X359898D02*
G03*
X359898Y1444001I-50800J0D01*
G01*
X3523132Y944002D02*
G03*
X3523132Y944002I-50800J0D01*
G01*
X2273132D02*
G03*
X2273132Y944002I-50800J0D01*
G01*
X3523132Y1444001D02*
G03*
X3523132Y1444001I-50800J0D01*
G01*
X2273132D02*
G03*
X2273132Y1444001I-50800J0D01*
G01*
D70*
X3502812Y2744003D02*
G03*
X3502812Y2744003I-30480J0D01*
G01*
X2252812D02*
G03*
X2252812Y2744003I-30480J0D01*
G01*
X3502812Y3244002D02*
G03*
X3502812Y3244002I-30480J0D01*
G01*
X2252812D02*
G03*
X2252812Y3244002I-30480J0D01*
G01*
X5416047Y2744003D02*
G03*
X5416047Y2744003I-30480J0D01*
G01*
X4166047D02*
G03*
X4166047Y2744003I-30480J0D01*
G01*
X5416047Y3244002D02*
G03*
X5416047Y3244002I-30480J0D01*
G01*
X4166047D02*
G03*
X4166047Y3244002I-30480J0D01*
G01*
X7329282Y2744003D02*
G03*
X7329282Y2744003I-30480J0D01*
G01*
X6079282D02*
G03*
X6079282Y2744003I-30480J0D01*
G01*
X7329282Y3244002D02*
G03*
X7329282Y3244002I-30480J0D01*
G01*
X6079282D02*
G03*
X6079282Y3244002I-30480J0D01*
G01*
X1589578Y2744003D02*
G03*
X1589578Y2744003I-30480J0D01*
G01*
X339578D02*
G03*
X339578Y2744003I-30480J0D01*
G01*
X1589578Y3244002D02*
G03*
X1589578Y3244002I-30480J0D01*
G01*
X339578D02*
G03*
X339578Y3244002I-30480J0D01*
G01*
X5416047Y944002D02*
G03*
X5416047Y944002I-30480J0D01*
G01*
X4166047D02*
G03*
X4166047Y944002I-30480J0D01*
G01*
X5416047Y1444001D02*
G03*
X5416047Y1444001I-30480J0D01*
G01*
X4166047D02*
G03*
X4166047Y1444001I-30480J0D01*
G01*
X7329282Y944002D02*
G03*
X7329282Y944002I-30480J0D01*
G01*
X6079282D02*
G03*
X6079282Y944002I-30480J0D01*
G01*
X7329282Y1444001D02*
G03*
X7329282Y1444001I-30480J0D01*
G01*
X6079282D02*
G03*
X6079282Y1444001I-30480J0D01*
G01*
X1589578Y944002D02*
G03*
X1589578Y944002I-30480J0D01*
G01*
X339578D02*
G03*
X339578Y944002I-30480J0D01*
G01*
X1589578Y1444001D02*
G03*
X1589578Y1444001I-30480J0D01*
G01*
X339578D02*
G03*
X339578Y1444001I-30480J0D01*
G01*
X3502812Y944002D02*
G03*
X3502812Y944002I-30480J0D01*
G01*
X2252812D02*
G03*
X2252812Y944002I-30480J0D01*
G01*
X3502812Y1444001D02*
G03*
X3502812Y1444001I-30480J0D01*
G01*
X2252812D02*
G03*
X2252812Y1444001I-30480J0D01*
G01*
%TF.MD5,4893573b5b968ce470d6ebac58b17245*%
M02*
