%TF.GenerationSoftware,Altium Limited,Altium Designer,23.10.1 (27)*%
G04 Layer_Color=32896*
%FSLAX45Y45*%
%MOMM*%
%TF.SameCoordinates,B354EDB2-5D87-4BC4-9A89-E940D1E3C1FA*%
%TF.FilePolarity,Positive*%
%TF.FileFunction,Other,Bottom_Assembly*%
%TF.Part,Single*%
G01*
G75*
%TA.AperFunction,NonConductor*%
%ADD30C,0.20000*%
G36*
X898616Y6731293D02*
X899633Y6729814D01*
X900835Y6728335D01*
X901944Y6727040D01*
X903054Y6725931D01*
X903886Y6725006D01*
X904255Y6724729D01*
X904533Y6724452D01*
X904625Y6724359D01*
X904718Y6724267D01*
X906659Y6722695D01*
X908601Y6721216D01*
X910450Y6719921D01*
X912299Y6718904D01*
X913871Y6717980D01*
X914518Y6717610D01*
X915073Y6717333D01*
X915535Y6717055D01*
X915905Y6716963D01*
X916090Y6716778D01*
X916182D01*
Y6709196D01*
X914795Y6709751D01*
X913409Y6710398D01*
X912022Y6711046D01*
X910727Y6711693D01*
X909618Y6712247D01*
X908693Y6712710D01*
X908139Y6713080D01*
X908046Y6713172D01*
X907954D01*
X906290Y6714189D01*
X904810Y6715206D01*
X903516Y6716131D01*
X902499Y6716963D01*
X901574Y6717610D01*
X901020Y6718165D01*
X900557Y6718534D01*
X900465Y6718627D01*
Y6668608D01*
X892606D01*
Y6732865D01*
X897691D01*
X898616Y6731293D01*
D02*
G37*
G36*
X1028701Y6668608D02*
X988668D01*
Y6676190D01*
X1020195D01*
Y6732588D01*
X1028701D01*
Y6668608D01*
D02*
G37*
G36*
X958989Y6733605D02*
X961116Y6733327D01*
X963150Y6732958D01*
X964907Y6732588D01*
X966293Y6732218D01*
X966941Y6732033D01*
X967403Y6731848D01*
X967773Y6731663D01*
X968050Y6731571D01*
X968235Y6731478D01*
X968328D01*
X970177Y6730554D01*
X971841Y6729537D01*
X973228Y6728427D01*
X974337Y6727410D01*
X975169Y6726486D01*
X975816Y6725746D01*
X976279Y6725191D01*
X976371Y6725099D01*
Y6725006D01*
X977296Y6723435D01*
X977943Y6721863D01*
X978405Y6720291D01*
X978683Y6718904D01*
X978867Y6717702D01*
X979052Y6716778D01*
Y6716408D01*
Y6716131D01*
Y6716038D01*
Y6715946D01*
X978960Y6714374D01*
X978683Y6712895D01*
X978313Y6711508D01*
X977943Y6710306D01*
X977573Y6709381D01*
X977203Y6708642D01*
X976926Y6708179D01*
X976833Y6707994D01*
X975909Y6706700D01*
X974799Y6705498D01*
X973690Y6704481D01*
X972580Y6703649D01*
X971656Y6702909D01*
X970824Y6702447D01*
X970269Y6702077D01*
X970177Y6701985D01*
X970084D01*
X969345Y6701615D01*
X968512Y6701245D01*
X966663Y6700598D01*
X964537Y6699951D01*
X962503Y6699304D01*
X960654Y6698749D01*
X959822Y6698564D01*
X959082Y6698379D01*
X958527Y6698194D01*
X958065Y6698102D01*
X957788Y6698009D01*
X957695D01*
X956123Y6697639D01*
X954644Y6697270D01*
X953350Y6696900D01*
X952240Y6696622D01*
X951131Y6696345D01*
X950206Y6696068D01*
X949374Y6695883D01*
X948727Y6695605D01*
X948080Y6695420D01*
X947617Y6695328D01*
X946878Y6695051D01*
X946415Y6694958D01*
X946323Y6694866D01*
X944936Y6694311D01*
X943734Y6693664D01*
X942717Y6693017D01*
X941978Y6692462D01*
X941330Y6691907D01*
X940961Y6691537D01*
X940683Y6691260D01*
X940591Y6691167D01*
X939944Y6690335D01*
X939481Y6689411D01*
X939204Y6688486D01*
X938926Y6687747D01*
X938834Y6687007D01*
X938742Y6686452D01*
Y6685990D01*
Y6685897D01*
X938834Y6684788D01*
X939019Y6683771D01*
X939296Y6682846D01*
X939666Y6682107D01*
X940036Y6681367D01*
X940313Y6680905D01*
X940498Y6680535D01*
X940591Y6680443D01*
X941330Y6679518D01*
X942255Y6678778D01*
X943179Y6678131D01*
X944012Y6677484D01*
X944844Y6677114D01*
X945491Y6676744D01*
X945953Y6676559D01*
X946138Y6676467D01*
X947525Y6676005D01*
X949004Y6675635D01*
X950483Y6675450D01*
X951778Y6675265D01*
X952887Y6675173D01*
X953812Y6675080D01*
X954644D01*
X956678Y6675173D01*
X958527Y6675357D01*
X960191Y6675635D01*
X961671Y6676005D01*
X962873Y6676375D01*
X963797Y6676652D01*
X964075Y6676744D01*
X964352Y6676837D01*
X964444Y6676929D01*
X964537D01*
X966016Y6677669D01*
X967403Y6678501D01*
X968420Y6679333D01*
X969345Y6680165D01*
X970084Y6680812D01*
X970546Y6681460D01*
X970824Y6681829D01*
X970916Y6681922D01*
X971563Y6683124D01*
X972211Y6684418D01*
X972580Y6685805D01*
X972950Y6687007D01*
X973228Y6688209D01*
X973413Y6689041D01*
Y6689411D01*
X973505Y6689688D01*
Y6689781D01*
Y6689873D01*
X981456Y6689133D01*
X981271Y6686822D01*
X980902Y6684603D01*
X980347Y6682662D01*
X979700Y6680905D01*
X979052Y6679518D01*
X978775Y6678963D01*
X978590Y6678501D01*
X978313Y6678131D01*
X978220Y6677854D01*
X978035Y6677669D01*
Y6677576D01*
X976649Y6675820D01*
X975169Y6674248D01*
X973597Y6672954D01*
X972118Y6671844D01*
X970824Y6671012D01*
X969714Y6670457D01*
X969345Y6670272D01*
X969067Y6670087D01*
X968882Y6669995D01*
X968790D01*
X966478Y6669163D01*
X964075Y6668516D01*
X961671Y6668146D01*
X959359Y6667776D01*
X958250Y6667684D01*
X957325Y6667591D01*
X956493D01*
X955753Y6667499D01*
X954274D01*
X951778Y6667591D01*
X949466Y6667869D01*
X947340Y6668331D01*
X945583Y6668793D01*
X944104Y6669163D01*
X943457Y6669440D01*
X942902Y6669625D01*
X942532Y6669810D01*
X942255Y6669903D01*
X942070Y6669995D01*
X941978D01*
X940036Y6671012D01*
X938372Y6672122D01*
X936892Y6673323D01*
X935691Y6674433D01*
X934766Y6675357D01*
X934119Y6676190D01*
X933657Y6676744D01*
X933564Y6676837D01*
Y6676929D01*
X932547Y6678686D01*
X931807Y6680350D01*
X931345Y6681922D01*
X930975Y6683401D01*
X930790Y6684696D01*
X930605Y6685713D01*
Y6686082D01*
Y6686360D01*
Y6686452D01*
Y6686545D01*
X930698Y6688394D01*
X930975Y6690150D01*
X931438Y6691722D01*
X931900Y6693017D01*
X932455Y6694126D01*
X932824Y6694958D01*
X933194Y6695420D01*
X933287Y6695605D01*
X934396Y6696992D01*
X935691Y6698287D01*
X937077Y6699396D01*
X938464Y6700413D01*
X939666Y6701153D01*
X940683Y6701707D01*
X941053Y6701892D01*
X941330Y6702077D01*
X941515Y6702170D01*
X941608D01*
X942347Y6702540D01*
X943272Y6702817D01*
X944289Y6703187D01*
X945398Y6703557D01*
X947710Y6704204D01*
X950114Y6704851D01*
X951223Y6705128D01*
X952240Y6705406D01*
X953257Y6705683D01*
X954089Y6705868D01*
X954736Y6706053D01*
X955291Y6706145D01*
X955661Y6706238D01*
X955753D01*
X957603Y6706700D01*
X959267Y6707070D01*
X960746Y6707532D01*
X962040Y6707902D01*
X963242Y6708364D01*
X964259Y6708734D01*
X965184Y6709104D01*
X966016Y6709381D01*
X966663Y6709751D01*
X967218Y6710028D01*
X967588Y6710213D01*
X967958Y6710491D01*
X968420Y6710768D01*
X968512Y6710861D01*
X969345Y6711785D01*
X969899Y6712710D01*
X970362Y6713634D01*
X970639Y6714559D01*
X970824Y6715298D01*
X970916Y6715946D01*
Y6716315D01*
Y6716500D01*
X970731Y6717980D01*
X970362Y6719274D01*
X969807Y6720384D01*
X969160Y6721401D01*
X968605Y6722140D01*
X968050Y6722787D01*
X967680Y6723157D01*
X967495Y6723250D01*
X966756Y6723712D01*
X966016Y6724174D01*
X964259Y6724914D01*
X962410Y6725376D01*
X960561Y6725746D01*
X958897Y6725931D01*
X958157Y6726023D01*
X957603Y6726116D01*
X956308D01*
X953719Y6726023D01*
X951408Y6725654D01*
X949559Y6725099D01*
X947987Y6724544D01*
X946785Y6723989D01*
X945861Y6723435D01*
X945398Y6723065D01*
X945214Y6722972D01*
X943919Y6721678D01*
X942902Y6720291D01*
X942070Y6718812D01*
X941515Y6717333D01*
X941145Y6715946D01*
X940868Y6714929D01*
X940776Y6714466D01*
X940683Y6714189D01*
Y6714004D01*
Y6713912D01*
X932547Y6714559D01*
X932732Y6716593D01*
X933194Y6718442D01*
X933657Y6720199D01*
X934304Y6721678D01*
X934858Y6722880D01*
X935321Y6723804D01*
X935506Y6724082D01*
X935691Y6724359D01*
X935783Y6724452D01*
Y6724544D01*
X936985Y6726116D01*
X938279Y6727503D01*
X939666Y6728705D01*
X941053Y6729629D01*
X942255Y6730461D01*
X943179Y6730924D01*
X943549Y6731108D01*
X943827Y6731293D01*
X944012Y6731386D01*
X944104D01*
X946138Y6732125D01*
X948357Y6732680D01*
X950391Y6733142D01*
X952333Y6733420D01*
X954089Y6733605D01*
X954736D01*
X955384Y6733697D01*
X956586D01*
X958989Y6733605D01*
D02*
G37*
G36*
X3913930Y11042332D02*
X3915780Y11042055D01*
X3917444Y11041685D01*
X3918923Y11041223D01*
X3920125Y11040853D01*
X3920957Y11040483D01*
X3921512Y11040206D01*
X3921697Y11040113D01*
X3923176Y11039188D01*
X3924470Y11038079D01*
X3925487Y11036970D01*
X3926412Y11035953D01*
X3927059Y11034936D01*
X3927521Y11034196D01*
X3927799Y11033641D01*
X3927891Y11033549D01*
Y11033456D01*
X3928538Y11031607D01*
X3929093Y11029666D01*
X3929463Y11027539D01*
X3929648Y11025505D01*
X3929833Y11023748D01*
Y11023009D01*
X3929925Y11022269D01*
Y11021714D01*
Y11021344D01*
Y11021067D01*
Y11020975D01*
Y10977335D01*
X3921419D01*
Y11021437D01*
Y11023379D01*
X3921234Y11025043D01*
X3921142Y11026430D01*
X3920957Y11027539D01*
X3920772Y11028371D01*
X3920680Y11029018D01*
X3920495Y11029388D01*
Y11029481D01*
X3920125Y11030405D01*
X3919663Y11031145D01*
X3919108Y11031792D01*
X3918646Y11032439D01*
X3918091Y11032809D01*
X3917721Y11033179D01*
X3917444Y11033364D01*
X3917351Y11033456D01*
X3916427Y11033918D01*
X3915502Y11034288D01*
X3914578Y11034473D01*
X3913746Y11034658D01*
X3912913Y11034751D01*
X3912359Y11034843D01*
X3911804D01*
X3910325Y11034751D01*
X3908938Y11034381D01*
X3907828Y11034011D01*
X3906811Y11033456D01*
X3906072Y11032994D01*
X3905517Y11032532D01*
X3905147Y11032254D01*
X3905055Y11032162D01*
X3904592Y11031607D01*
X3904223Y11030960D01*
X3903668Y11029481D01*
X3903113Y11027816D01*
X3902836Y11026152D01*
X3902558Y11024580D01*
Y11023933D01*
X3902466Y11023379D01*
X3902373Y11022824D01*
Y11022454D01*
Y11022269D01*
Y11022177D01*
X3894700Y11023286D01*
Y11025043D01*
X3894792Y11026614D01*
X3895069Y11028186D01*
X3895254Y11029573D01*
X3895624Y11030867D01*
X3895994Y11031977D01*
X3896364Y11033086D01*
X3896734Y11034011D01*
X3897196Y11034843D01*
X3897566Y11035583D01*
X3897936Y11036230D01*
X3898305Y11036692D01*
X3898583Y11037062D01*
X3898768Y11037432D01*
X3898860Y11037524D01*
X3898953Y11037617D01*
X3899877Y11038449D01*
X3900802Y11039188D01*
X3901819Y11039836D01*
X3902928Y11040390D01*
X3905055Y11041223D01*
X3907089Y11041777D01*
X3909030Y11042147D01*
X3909770Y11042240D01*
X3910510Y11042332D01*
X3911064Y11042424D01*
X3911896D01*
X3913930Y11042332D01*
D02*
G37*
G36*
X3963949Y11042240D02*
X3966261Y11041870D01*
X3968202Y11041223D01*
X3969866Y11040575D01*
X3971253Y11039928D01*
X3971715Y11039558D01*
X3972178Y11039281D01*
X3972548Y11039096D01*
X3972825Y11038911D01*
X3972917Y11038726D01*
X3973010D01*
X3974674Y11037154D01*
X3976061Y11035490D01*
X3977263Y11033641D01*
X3978187Y11031977D01*
X3978927Y11030405D01*
X3979297Y11029758D01*
X3979482Y11029111D01*
X3979667Y11028649D01*
X3979852Y11028279D01*
X3979944Y11028094D01*
Y11028001D01*
X3980406Y11026614D01*
X3980776Y11025228D01*
X3981331Y11022269D01*
X3981793Y11019218D01*
X3982071Y11016259D01*
X3982163Y11014965D01*
X3982255Y11013763D01*
Y11012654D01*
X3982348Y11011637D01*
Y11010897D01*
Y11010250D01*
Y11009880D01*
Y11009787D01*
Y11008031D01*
X3982255Y11006367D01*
Y11004887D01*
X3982163Y11003408D01*
X3981978Y11002114D01*
X3981886Y11000819D01*
X3981793Y10999710D01*
X3981608Y10998693D01*
X3981516Y10997768D01*
X3981331Y10996936D01*
X3981238Y10996289D01*
X3981146Y10995734D01*
X3981054Y10995272D01*
X3980961Y10994995D01*
X3980869Y10994810D01*
Y10994717D01*
X3980314Y10992683D01*
X3979667Y10990834D01*
X3978927Y10989262D01*
X3978372Y10987875D01*
X3977725Y10986673D01*
X3977355Y10985841D01*
X3976985Y10985379D01*
X3976893Y10985194D01*
X3975876Y10983807D01*
X3974859Y10982605D01*
X3973749Y10981588D01*
X3972732Y10980664D01*
X3971808Y10980017D01*
X3971068Y10979554D01*
X3970606Y10979277D01*
X3970514Y10979185D01*
X3970421D01*
X3968942Y10978445D01*
X3967370Y10977983D01*
X3965891Y10977613D01*
X3964504Y10977335D01*
X3963302Y10977151D01*
X3962285Y10977058D01*
X3961453D01*
X3958957Y10977243D01*
X3956645Y10977613D01*
X3954704Y10978260D01*
X3953039Y10978907D01*
X3951652Y10979647D01*
X3951098Y10979924D01*
X3950635Y10980294D01*
X3950266Y10980479D01*
X3949988Y10980664D01*
X3949896Y10980849D01*
X3949803D01*
X3948139Y10982328D01*
X3946752Y10984085D01*
X3945550Y10985841D01*
X3944626Y10987506D01*
X3943886Y10989077D01*
X3943516Y10989725D01*
X3943331Y10990372D01*
X3943147Y10990834D01*
X3942962Y10991204D01*
X3942869Y10991389D01*
Y10991481D01*
X3942499Y10992868D01*
X3942130Y10994255D01*
X3941575Y10997306D01*
X3941113Y11000357D01*
X3940835Y11003223D01*
X3940743Y11004610D01*
X3940650Y11005812D01*
Y11006921D01*
X3940558Y11007938D01*
Y11008678D01*
Y11009325D01*
Y11009695D01*
Y11009787D01*
X3940650Y11013023D01*
X3940835Y11016074D01*
X3941113Y11018848D01*
X3941575Y11021437D01*
X3942037Y11023841D01*
X3942592Y11025967D01*
X3943147Y11027909D01*
X3943701Y11029573D01*
X3944256Y11031052D01*
X3944903Y11032347D01*
X3945365Y11033456D01*
X3945828Y11034288D01*
X3946290Y11035028D01*
X3946567Y11035490D01*
X3946752Y11035768D01*
X3946845Y11035860D01*
X3947862Y11036970D01*
X3948971Y11037987D01*
X3950173Y11038911D01*
X3951375Y11039651D01*
X3952577Y11040298D01*
X3953779Y11040853D01*
X3954981Y11041223D01*
X3956090Y11041592D01*
X3957200Y11041870D01*
X3958217Y11042055D01*
X3959141Y11042240D01*
X3959881Y11042332D01*
X3960528Y11042424D01*
X3961453D01*
X3963949Y11042240D01*
D02*
G37*
%LPC*%
G36*
X3962008Y11035953D02*
X3961453D01*
X3960436Y11035860D01*
X3959511Y11035768D01*
X3957755Y11035120D01*
X3956183Y11034288D01*
X3954796Y11033364D01*
X3953779Y11032439D01*
X3952947Y11031607D01*
X3952485Y11030960D01*
X3952300Y11030867D01*
Y11030775D01*
X3951652Y11029666D01*
X3951098Y11028371D01*
X3950543Y11026892D01*
X3950173Y11025320D01*
X3949803Y11023656D01*
X3949526Y11021899D01*
X3949064Y11018293D01*
X3948879Y11016629D01*
X3948786Y11015057D01*
X3948694Y11013578D01*
Y11012376D01*
X3948601Y11011267D01*
Y11010435D01*
Y11009972D01*
Y11009787D01*
X3948694Y11006921D01*
X3948786Y11004333D01*
X3948971Y11001929D01*
X3949249Y10999710D01*
X3949526Y10997768D01*
X3949896Y10996012D01*
X3950266Y10994440D01*
X3950635Y10993053D01*
X3951005Y10991851D01*
X3951283Y10990834D01*
X3951652Y10990002D01*
X3951930Y10989262D01*
X3952207Y10988800D01*
X3952392Y10988430D01*
X3952577Y10988245D01*
Y10988153D01*
X3953224Y10987321D01*
X3953871Y10986581D01*
X3954611Y10986026D01*
X3955351Y10985472D01*
X3956830Y10984639D01*
X3958217Y10984085D01*
X3959419Y10983807D01*
X3960436Y10983622D01*
X3960806Y10983530D01*
X3961360D01*
X3962377Y10983622D01*
X3963394Y10983715D01*
X3964319Y10983992D01*
X3965151Y10984362D01*
X3966723Y10985194D01*
X3968110Y10986119D01*
X3969127Y10987136D01*
X3969959Y10987968D01*
X3970236Y10988338D01*
X3970421Y10988615D01*
X3970606Y10988708D01*
Y10988800D01*
X3971253Y10989909D01*
X3971808Y10991204D01*
X3972363Y10992683D01*
X3972732Y10994255D01*
X3973102Y10995919D01*
X3973380Y10997676D01*
X3973842Y11001189D01*
X3974027Y11002946D01*
X3974119Y11004517D01*
X3974212Y11005997D01*
Y11007199D01*
X3974304Y11008308D01*
Y11009140D01*
Y11009603D01*
Y11009695D01*
Y11009787D01*
Y11012654D01*
X3974119Y11015242D01*
X3973934Y11017554D01*
X3973749Y11019773D01*
X3973472Y11021622D01*
X3973102Y11023379D01*
X3972732Y11024858D01*
X3972455Y11026245D01*
X3972085Y11027354D01*
X3971715Y11028279D01*
X3971438Y11029111D01*
X3971068Y11029758D01*
X3970883Y11030220D01*
X3970698Y11030498D01*
X3970514Y11030683D01*
Y11030775D01*
X3969774Y11031700D01*
X3969034Y11032439D01*
X3968295Y11033179D01*
X3967555Y11033734D01*
X3965983Y11034658D01*
X3964596Y11035305D01*
X3963302Y11035675D01*
X3962377Y11035860D01*
X3962008Y11035953D01*
D02*
G37*
%LPD*%
D30*
X19700Y9968601D02*
X7769703D01*
Y12078599D01*
X19700D02*
X7769703D01*
X19700Y9968601D02*
Y12078599D01*
%TF.MD5,a368ed783f97aca70a356c0cdaa421a4*%
M02*
