%TF.GenerationSoftware,Altium Limited,Altium Designer,23.10.1 (27)*%
G04 Layer_Color=16711935*
%FSLAX45Y45*%
%MOMM*%
%TF.SameCoordinates,B354EDB2-5D87-4BC4-9A89-E940D1E3C1FA*%
%TF.FilePolarity,Positive*%
%TF.FileFunction,Other,Mechanical_13*%
%TF.Part,Single*%
G01*
G75*
%TA.AperFunction,NonConductor*%
%ADD30C,0.20000*%
%ADD32C,0.12700*%
%ADD47C,0.10000*%
D30*
X3635900Y9338300D02*
G03*
X3635900Y9338300I-10000J0D01*
G01*
X5353100Y3866100D02*
G03*
X5353100Y3866100I-10000J0D01*
G01*
Y5388100D02*
G03*
X5353100Y5388100I-10000J0D01*
G01*
D32*
X4725899Y6688303D02*
Y6888302D01*
X3325901D02*
X4725899D01*
X3325901Y6688303D02*
Y6888302D01*
X2725903Y6688303D02*
Y9288302D01*
Y6688303D02*
X3325901D01*
X4725899D02*
X5325902D01*
Y9288302D01*
X2725903D02*
X5325902D01*
D47*
X198100Y3739098D02*
Y3993098D01*
Y3739098D02*
X5278100D01*
Y3993098D01*
X198100D02*
X5278100D01*
X198100Y3739098D02*
Y3993098D01*
Y3739098D02*
X5278100D01*
Y3993098D01*
X198100Y5261102D02*
Y5515102D01*
Y5261102D02*
X5278100D01*
Y5515102D01*
X198100D02*
X5278100D01*
X198100Y5261102D02*
Y5515102D01*
Y5261102D02*
X5278100D01*
Y5515102D01*
%TF.MD5,fe7adcd4711adc13cbb404b7469082b3*%
M02*
