%TF.GenerationSoftware,Altium Limited,Altium Designer,23.10.1 (27)*%
G04 Layer_Color=8388736*
%FSLAX45Y45*%
%MOMM*%
%TF.SameCoordinates,B354EDB2-5D87-4BC4-9A89-E940D1E3C1FA*%
%TF.FilePolarity,Negative*%
%TF.FileFunction,Soldermask,Top*%
%TF.Part,Single*%
G01*
G75*
%TA.AperFunction,SMDPad,CuDef*%
%ADD10R,2.50000X1.00000*%
%TA.AperFunction,ComponentPad*%
%ADD17C,1.45000*%
%ADD18R,1.45000X1.45000*%
%ADD19R,2.02000X2.02000*%
%ADD20C,2.02000*%
%ADD21C,3.55000*%
%ADD22C,2.39000*%
%ADD27C,1.30000*%
%TA.AperFunction,ViaPad*%
%ADD35C,3.40320*%
%TA.AperFunction,ComponentPad*%
%ADD36C,2.00320*%
%ADD37C,2.20320*%
%ADD38C,1.71120*%
%ADD39R,1.71120X1.71120*%
%ADD40R,2.20320X2.20320*%
%ADD41C,1.72720*%
%ADD42C,1.18820*%
%ADD43R,1.18820X1.18820*%
%TA.AperFunction,ViaPad*%
%ADD44C,1.47320*%
%ADD45C,2.74320*%
D10*
X7310399Y9053500D02*
D03*
Y8853500D02*
D03*
Y8653501D02*
D03*
D17*
X778698Y6667500D02*
D03*
D18*
X1278702D02*
D03*
D19*
X283703Y11023600D02*
D03*
D20*
X7505700D02*
D03*
D21*
X6654698Y10223602D02*
D03*
X1134699Y11823598D02*
D03*
D22*
X7474702D02*
D03*
D27*
X7685400Y9268501D02*
D03*
Y8638499D02*
D03*
D35*
X241200Y12382500D02*
D03*
X7441200D02*
D03*
X241200Y5882500D02*
D03*
X7441200Y4682500D02*
D03*
Y282500D02*
D03*
X341200D02*
D03*
D36*
X3472332Y2744003D02*
D03*
X2222332D02*
D03*
X3472332Y3244002D02*
D03*
X2222332D02*
D03*
X5385567Y2744003D02*
D03*
X4135567D02*
D03*
X5385567Y3244002D02*
D03*
X4135567D02*
D03*
X7298802Y2744003D02*
D03*
X6048802D02*
D03*
X7298802Y3244002D02*
D03*
X6048802D02*
D03*
X1559098Y2744003D02*
D03*
X309098D02*
D03*
X1559098Y3244002D02*
D03*
X309098D02*
D03*
X5385567Y944002D02*
D03*
X4135567D02*
D03*
X5385567Y1444001D02*
D03*
X4135567D02*
D03*
X7298802Y944002D02*
D03*
X6048802D02*
D03*
X7298802Y1444001D02*
D03*
X6048802D02*
D03*
X1559098Y944002D02*
D03*
X309098D02*
D03*
X1559098Y1444001D02*
D03*
X309098D02*
D03*
X3472332Y944002D02*
D03*
X2222332D02*
D03*
X3472332Y1444001D02*
D03*
X2222332D02*
D03*
D37*
X2925902Y6888302D02*
D03*
X5125898D02*
D03*
Y9088298D02*
D03*
X2925902D02*
D03*
D38*
X4406900Y9138300D02*
D03*
X4152900D02*
D03*
X3898900D02*
D03*
D39*
X3644900D02*
D03*
D40*
X5647900Y5665450D02*
D03*
X7366000Y5664200D02*
D03*
X5647000Y9615100D02*
D03*
X7365100Y9613850D02*
D03*
D41*
X1930400Y9423400D02*
D03*
X1676400D02*
D03*
X1422400D02*
D03*
X1168400D02*
D03*
X914400D02*
D03*
X673100D02*
D03*
X685800Y8153400D02*
D03*
X927100D02*
D03*
X1181100D02*
D03*
X1435100D02*
D03*
X1689100D02*
D03*
X1943100D02*
D03*
D42*
X325100Y3866098D02*
D03*
X579100D02*
D03*
X833100D02*
D03*
X1087100D02*
D03*
X1341100D02*
D03*
X1595100D02*
D03*
X1849100D02*
D03*
X2103100D02*
D03*
X2357100D02*
D03*
X2611100D02*
D03*
X2865100D02*
D03*
X3119100D02*
D03*
X3373100D02*
D03*
X3627100D02*
D03*
X3881100D02*
D03*
X4135100D02*
D03*
X4389100D02*
D03*
X4643100D02*
D03*
X4897100D02*
D03*
X325100Y5388102D02*
D03*
X579100D02*
D03*
X833100D02*
D03*
X1087100D02*
D03*
X1341100D02*
D03*
X1595100D02*
D03*
X1849100D02*
D03*
X2103100D02*
D03*
X2357100D02*
D03*
X2611100D02*
D03*
X2865100D02*
D03*
X3119100D02*
D03*
X3373100D02*
D03*
X3627100D02*
D03*
X3881100D02*
D03*
X4135100D02*
D03*
X4389100D02*
D03*
X4643100D02*
D03*
X4897100D02*
D03*
D43*
X5151100Y3866098D02*
D03*
Y5388102D02*
D03*
D44*
X5194300Y9550400D02*
D03*
X1993900Y7112000D02*
D03*
X6400800Y9055100D02*
D03*
D45*
X2324100Y9423400D02*
D03*
X292100D02*
D03*
Y8153400D02*
D03*
X2324100D02*
D03*
%TF.MD5,a745273d7144ae8885dc764fc8ff3c90*%
M02*
